Coordinates
version=1
nRows=43
nColumns=12
inDegrees=yes

Units are S.I. units (second, meters, Newtons, ...)
Angles are in degrees

endheader
time	SC_y	SC_z	SC_x	AC_y	AC_z	AC_x	GH_y	GH_z	GH_yy	EL_x	PS_y
       0.0              -34.93           12.5          3.268          69.61          8.605         -14.64         -76.48          16.64         -10.29          70.96          87.83
 0.0006978              -34.94          12.51          3.268          69.61          8.602         -14.64         -76.45          16.64         -10.31          70.97          87.82
  0.001396              -34.94          12.51           3.27           69.6          8.599         -14.63         -76.43          16.64         -10.33          70.97          87.81
  0.002093              -34.94          12.51          3.271           69.6          8.595         -14.63          -76.4          16.65         -10.36          70.97           87.8
  0.002791              -34.94          12.52          3.272           69.6          8.592         -14.63         -76.37          16.65         -10.38          70.98          87.79
  0.003489              -34.95          12.52          3.273           69.6          8.588         -14.63         -76.34          16.65          -10.4          70.98          87.78
  0.004187              -34.95          12.53          3.274          69.59          8.584         -14.63         -76.31          16.66         -10.43          70.99          87.76
  0.004885              -34.95          12.53          3.276          69.59          8.579         -14.62         -76.27          16.66         -10.46          70.99          87.75
  0.005583              -34.96          12.54          3.277          69.59          8.575         -14.62         -76.23          16.66         -10.49           71.0          87.73
   0.00628              -34.96          12.54          3.279          69.58           8.57         -14.62         -76.19          16.67         -10.52           71.0          87.72
  0.006978              -34.97          12.55          3.281          69.58          8.564         -14.61         -76.15          16.67         -10.55          71.01           87.7
  0.007676              -34.97          12.55          3.283          69.58          8.558         -14.61          -76.1          16.68         -10.59          71.01          87.68
  0.008374              -34.97          12.56          3.285          69.57          8.552         -14.61         -76.05          16.68         -10.63          71.02          87.66
  0.009072              -34.98          12.57          3.287          69.57          8.545          -14.6          -76.0          16.69         -10.67          71.03          87.64
   0.00977              -34.98          12.58          3.289          69.56          8.538          -14.6         -75.94          16.69         -10.72          71.03          87.61
   0.01047              -34.99          12.59          3.292          69.56           8.53         -14.59         -75.87           16.7         -10.77          71.04          87.59
   0.01117               -35.0           12.6          3.295          69.55          8.521         -14.59          -75.8          16.71         -10.82          71.05          87.56
   0.01186               -35.0          12.61          3.298          69.55          8.511         -14.58         -75.72          16.71         -10.88          71.06          87.53
   0.01256              -35.01          12.62          3.301          69.54          8.501         -14.58         -75.64          16.72         -10.95          71.07          87.49
   0.01326              -35.02          12.63          3.305          69.53           8.49         -14.57         -75.55          16.73         -11.02          71.09          87.45
   0.01396              -35.03          12.64          3.309          69.53          8.477         -14.56         -75.45          16.74          -11.1           71.1          87.41
   0.01465              -35.04          12.66          3.313          69.52          8.463         -14.56         -75.34          16.75         -11.19          71.11          87.37
   0.01535              -35.05          12.68          3.318          69.51          8.448         -14.55         -75.22          16.76         -11.28          71.13          87.32
   0.01605              -35.06          12.69          3.323           69.5          8.431         -14.54         -75.08          16.78         -11.39          71.15          87.26
   0.01675              -35.08          12.72          3.329          69.48          8.413         -14.53         -74.93          16.79          -11.5          71.17           87.2
   0.01745              -35.09          12.74          3.336          69.47          8.392         -14.52         -74.76          16.81         -11.64          71.19          87.13
   0.01814              -35.11          12.76          3.343          69.46          8.368          -14.5         -74.57          16.82         -11.78          71.22          87.06
   0.01884              -35.13          12.79          3.352          69.44          8.342         -14.49         -74.36          16.85         -11.95          71.24          86.97
   0.01954              -35.15          12.83          3.361          69.42          8.312         -14.47         -74.12          16.87         -12.13          71.28          86.87
   0.02024              -35.18          12.86          3.372           69.4          8.279         -14.45         -73.85          16.89         -12.35          71.31          86.76
   0.02093               -35.2          12.91          3.384          69.37           8.24         -14.43         -73.54          16.92         -12.59          71.35          86.64
   0.02163              -35.24          12.96          3.399          69.35          8.196          -14.4         -73.19          16.96         -12.87           71.4          86.49
   0.02233              -35.27          13.01          3.415          69.31          8.145         -14.37         -72.78           17.0         -13.19          71.45          86.33
   0.02303              -35.32          13.08          3.434          69.27          8.086         -14.34          -72.3          17.05         -13.56          71.52          86.13
   0.02373              -35.37          13.15          3.456          69.23          8.016          -14.3         -71.74           17.1          -14.0          71.59          85.91
   0.02442              -35.43          13.25          3.482          69.18          7.934         -14.25         -71.09          17.16         -14.51          71.68          85.64
   0.02512               -35.5          13.35          3.514          69.12          7.837          -14.2          -70.3          17.24         -15.12          71.78          85.32
   0.02582              -35.59          13.48          3.551          69.04          7.721         -14.13         -69.37          17.33         -15.85          71.91          84.94
   0.02652              -35.69          13.64          3.596          68.95           7.58         -14.05         -68.23          17.44         -16.74          72.06          84.48
   0.02722              -35.82          13.83          3.651          68.84          7.408         -13.95         -66.85          17.57         -17.82          72.24          83.92
   0.02791              -35.97          14.07          3.719          68.71          7.195         -13.83         -65.14          17.74         -19.15          72.47          83.22
   0.02861              -36.17          14.36          3.804          68.54           6.93         -13.68         -63.01          17.95         -20.82          72.75          82.35
   0.02931              -36.42          14.73          3.911          68.32          6.597         -13.49         -60.33          18.21         -22.92          73.11          81.26
